<svg width="98" height="88" viewBox="0 0 98 88" fill="none" xmlns="http://www.w3.org/2000/svg">
<path d="M112.554 15.6875L114.189 15.8311L95.5674 42.4746L93.3896 37.8086L92.8555 36.665L91.8643 37.4453C82.4958 44.8213 69.1381 60.0074 68.585 86.9912L51.0889 86.8389C51.7778 51.0626 72.6148 30.4569 84.8428 21.3896L85.499 20.9033L85.1533 20.1641L81.8066 12.9912L112.554 15.6875ZM30.8467 20.1641L30.501 20.9033L31.1572 21.3896C37.8381 26.3463 47.0907 34.7661 54.2236 47.2109C51.5539 52.3574 49.3875 57.7676 47.8301 63.375C46.9622 66.4162 46.2831 69.5025 45.7646 72.6133C41.8248 54.4153 31.6835 43.388 24.1367 37.4453L23.1455 36.665L22.6113 37.8086L20.4326 42.4746L2.75195 17.1768V17.1758L1.81055 15.8311L34.1924 12.9912L30.8467 20.1641ZM74.2676 2.1416H66.749V29.0215C63.5233 32.6554 60.5966 36.5429 57.9971 40.6465C55.4063 36.5353 52.4818 32.6435 49.251 29.0117V2.1416H41.7324L57.1777 -24.5791L57.999 -26.002L74.2676 2.1416Z" stroke="#A0A0A0" stroke-opacity="0.1" stroke-width="2"/>
</svg>
